HIERARCHY
ROOT Hips
{
	OFFSET 0.000000 0.000000 0.000000
	CHANNELS 6 Xposition Yposition Zposition Zrotation Yrotation Xrotation 
	JOINT LeftUpLeg_virtual
	{
		OFFSET 0.000000 0.000000 0.000000
		CHANNELS 3 Zrotation Yrotation Xrotation
		JOINT LeftUpLeg
		{
			OFFSET 8.479694 -4.795517 -0.379053
			CHANNELS 3 Zrotation Yrotation Xrotation
			JOINT LeftLeg
			{
				OFFSET 0.485052 -32.551468 0.112863
				CHANNELS 3 Zrotation Yrotation Xrotation
				JOINT LeftFoot
				{
					OFFSET 0.438033 -32.635670 -3.012641
					CHANNELS 3 Zrotation Yrotation Xrotation
					JOINT LeftToeBase
					{
						OFFSET 0.970169 -13.225353 11.864223
						CHANNELS 3 Zrotation Yrotation Xrotation
						End Site
						{
							OFFSET 0.000000 0.000000 0.000000
						}
					}
				}
			}
		}
	}
	JOINT RightUpLeg_virtual
	{
		OFFSET 0.000000 0.000000 0.000000
		CHANNELS 3 Zrotation Yrotation Xrotation
		JOINT RightUpLeg
		{
			OFFSET -8.479694 -4.795517 -0.379053
			CHANNELS 3 Zrotation Yrotation Xrotation
			JOINT RightLeg
			{
				OFFSET -0.484100 -32.551483 0.112903
				CHANNELS 3 Zrotation Yrotation Xrotation
				JOINT RightFoot
				{
					OFFSET -0.438985 -32.635651 -3.012681
					CHANNELS 3 Zrotation Yrotation Xrotation
					JOINT RightToeBase
					{
						OFFSET -0.970169 -13.225354 11.864223
						CHANNELS 3 Zrotation Yrotation Xrotation
						End Site
						{
							OFFSET 0.000000 0.000000 0.000000
						}
					}
				}
			}
		}
	}
	JOINT Spine_virtual
	{
		OFFSET 0.000000 0.000000 0.000000
		CHANNELS 3 Zrotation Yrotation Xrotation
		JOINT Spine
		{
			OFFSET 0.000000 7.722015 1.166203
			CHANNELS 3 Zrotation Yrotation Xrotation
			JOINT Spine1
			{
				OFFSET 0.000000 12.024086 0.248766
				CHANNELS 3 Zrotation Yrotation Xrotation
				JOINT Spine2
				{
					OFFSET -0.000000 11.503036 -0.491240
					CHANNELS 3 Zrotation Yrotation Xrotation
					JOINT Neck_virtual
					{
						OFFSET 0.000000 0.000000 0.000000
						CHANNELS 3 Zrotation Yrotation Xrotation
						JOINT Neck
						{
							OFFSET 0.000000 18.430687 -3.123054
							CHANNELS 3 Zrotation Yrotation Xrotation
							JOINT Head
							{
								OFFSET -0.000000 9.051071 1.034021
								CHANNELS 3 Zrotation Yrotation Xrotation
								End Site
								{
									OFFSET 0.000000 0.000000 0.000000
								}
							}
						}
					}
					JOINT LeftShoulder_virtual
					{
						OFFSET 0.000000 0.000000 0.000000
						CHANNELS 3 Zrotation Yrotation Xrotation
						JOINT LeftShoulder
						{
							OFFSET 6.197824 13.665230 -4.064723
							CHANNELS 3 Zrotation Yrotation Xrotation
							JOINT LeftArm
							{
								OFFSET 7.778132 -0.187073 -1.709282
								CHANNELS 3 Zrotation Yrotation Xrotation
								JOINT LeftForeArm
								{
									OFFSET 21.954697 0.000000 -2.041093
									CHANNELS 3 Zrotation Yrotation Xrotation
									JOINT LeftHand
									{
										OFFSET 22.992908 0.000000 -0.870901
										CHANNELS 3 Zrotation Yrotation Xrotation
										End Site
										{
											OFFSET 0.000000 0.000000 0.000000
										}
									}
								}
							}
						}
					}
					JOINT RightShoulder_virtual
					{
						OFFSET 0.000000 0.000000 0.000000
						CHANNELS 3 Zrotation Yrotation Xrotation
						JOINT RightShoulder
						{
							OFFSET -6.197824 13.665230 -4.064723
							CHANNELS 3 Zrotation Yrotation Xrotation
							JOINT RightArm
							{
								OFFSET -7.778132 -0.187073 -1.709282
								CHANNELS 3 Zrotation Yrotation Xrotation
								JOINT RightForeArm
								{
									OFFSET -21.954697 0.000000 -2.041093
									CHANNELS 3 Zrotation Yrotation Xrotation
									JOINT RightHand
									{
										OFFSET -22.992908 0.000000 -0.870901
										CHANNELS 3 Zrotation Yrotation Xrotation
										End Site
										{
											OFFSET 0.000000 0.000000 0.000000
										}
									}
								}
							}
						}
					}
				}
			}
		}
	}
}
MOTION
Frames: 10
Frame Time: 0.033333
-49.593033 79.157318 49.671375 -179.761222 51.315785 -179.784280 -3.571951 -3.026463 14.667976 -10.751576 5.094550 -24.131016 8.281732 2.674998 36.325374 -0.552112 -7.709013 -17.774845 0.000000 0.000000 0.000000 0.183297 -3.759161 15.083484 -1.759723 -15.157851 -48.087250 -0.591146 0.756295 33.539842 11.948189 14.832242 10.901107 0.000000 0.000000 0.000000 2.989914 -0.206407 2.706865 -1.769241 2.935519 -7.404257 -0.494451 -2.918984 6.074795 0.012142 -0.061575 0.022196 -0.511750 -1.753427 5.299718 -5.585985 0.613661 -1.196947 0.000000 0.000000 0.000000 1.149970 -0.933150 2.104869 -4.067378 2.299524 -0.214445 -28.539580 3.714825 -24.047704 4.038822 -47.177882 6.205334 0.000000 0.000000 0.000000 -3.247149 0.330692 1.312307 22.324547 1.023941 3.510668 13.651074 6.666982 -31.259331 -1.316360 46.243782 1.855200 0.000000 0.000000 0.000000 
-49.726059 79.118950 49.491386 -179.890845 49.684756 -179.882444 -3.572365 -3.808939 14.577497 -10.712332 4.482565 -24.019526 8.103724 2.681565 36.435965 -0.506430 -7.526816 -17.708452 0.000000 0.000000 0.000000 0.290333 -4.704667 14.830871 -0.665604 -17.597400 -48.434517 -1.158964 -0.199492 34.049555 11.495827 14.678894 11.391052 0.000000 0.000000 0.000000 3.059570 -0.800101 2.512468 -1.863641 3.323095 -7.402539 -0.511275 -2.836690 6.028609 0.006587 -0.034465 -0.008785 -0.530631 -1.692778 5.245093 -4.971573 0.425258 -0.890283 0.000000 0.000000 0.000000 1.179990 -0.921516 2.016546 -3.731622 2.569105 -0.273013 -26.007154 3.163912 -28.292208 4.506742 -40.987508 5.452884 0.000000 0.000000 0.000000 -3.213771 0.338808 1.241881 22.328068 0.964930 2.998462 11.127952 9.165258 -38.750409 -1.398052 40.814683 2.093908 0.000000 0.000000 0.000000 
-49.866051 79.070412 49.304195 179.962193 48.140017 179.936880 -3.510170 -4.371260 14.545904 -10.757860 3.928623 -23.834104 7.940005 2.696786 36.547229 -0.556182 -7.477720 -17.632166 0.000000 0.000000 0.000000 0.325721 -5.463284 14.720678 0.094180 -19.576103 -48.891088 -1.473762 -0.780726 34.419605 11.317716 14.640551 12.479950 0.000000 0.000000 0.000000 3.179699 -1.285372 2.408349 -2.008847 3.686680 -7.384719 -0.566187 -2.735274 5.998469 0.021750 0.009529 0.005609 -0.516686 -1.611570 5.150479 -4.324772 0.300363 -0.506789 0.000000 0.000000 0.000000 1.132035 -0.885452 1.911025 -3.483194 3.069438 -0.618404 -24.103881 2.465211 -34.065097 4.329091 -35.713020 5.170726 0.000000 0.000000 0.000000 -3.257432 0.345954 1.038557 22.314889 0.837175 2.802474 8.739174 10.927346 -45.859673 -1.732357 36.263383 2.137552 0.000000 0.000000 0.000000 
-49.993958 79.019646 49.093700 179.916950 46.527331 179.977561 -3.420661 -5.058224 14.474170 -10.824232 3.532529 -23.698250 7.791171 2.610831 36.629362 -0.643835 -7.510847 -17.590008 0.000000 0.000000 0.000000 0.367958 -6.078696 14.616863 0.739343 -21.332291 -49.512970 -1.605998 -1.036015 34.598723 11.343140 14.608644 14.431963 0.000000 0.000000 0.000000 3.309008 -1.766596 2.266934 -2.186965 3.925235 -7.463974 -0.605442 -2.718064 5.913336 -0.012390 -0.022716 -0.006911 -0.497890 -1.476462 5.077686 -3.797243 0.314578 -0.199324 0.000000 0.000000 0.000000 1.176260 -0.828325 1.732342 -3.388440 3.810231 -0.981703 -22.711091 1.825676 -40.453933 4.471485 -31.558674 4.440722 0.000000 0.000000 0.000000 -3.181735 0.375864 1.039257 22.297897 0.697132 2.267603 6.870298 12.270032 -52.083840 -1.889374 32.615349 2.563893 0.000000 0.000000 0.000000 
-50.107578 78.966522 48.878624 179.914833 44.942337 179.881009 -3.355762 -5.697389 14.534497 -10.900501 3.238301 -23.521140 7.629764 2.494645 36.643456 -0.753330 -7.584232 -17.618160 0.000000 0.000000 0.000000 0.318552 -6.487923 14.602579 1.009354 -22.695288 -49.768098 -1.545009 -0.750278 34.766421 11.473198 14.886303 15.812749 0.000000 0.000000 0.000000 3.443029 -2.166526 2.224453 -2.381628 4.119477 -7.500438 -0.585451 -2.681913 5.874858 -0.016054 -0.033926 0.003120 -0.469002 -1.522367 4.911272 -3.311696 0.239167 0.133350 0.000000 0.000000 0.000000 1.171285 -0.798643 1.552030 -3.199478 4.666878 -1.491772 -21.810232 1.105595 -47.286595 4.574796 -28.610411 3.544417 0.000000 0.000000 0.000000 -3.208037 0.384737 0.809421 22.233381 0.412308 1.957408 5.532339 13.080459 -57.595215 -2.329634 29.915416 2.742376 0.000000 0.000000 0.000000 
-50.203033 78.920776 48.674171 179.948970 43.414137 179.900175 -3.297002 -6.315812 14.545625 -10.911103 2.992135 -23.389715 7.471834 2.380576 36.663718 -0.872471 -7.656503 -17.635805 0.000000 0.000000 0.000000 0.233198 -6.801882 14.819607 1.090530 -23.624330 -50.140159 -1.248147 -0.234552 35.179948 11.521922 15.326559 15.778946 0.000000 0.000000 0.000000 3.561435 -2.535416 2.086242 -2.613419 4.235995 -7.582784 -0.543769 -2.663386 5.818780 0.011884 -0.056134 0.012016 -0.462746 -1.481284 4.812404 -2.906658 0.216831 0.485315 0.000000 0.000000 0.000000 1.189954 -0.785384 1.416667 -3.194459 5.514706 -1.979524 -21.083717 0.488233 -53.628627 4.599051 -26.705244 2.708948 0.000000 0.000000 0.000000 -3.223879 0.354241 0.671119 22.143446 0.041369 1.603624 4.667414 13.583957 -62.157133 -2.742693 27.915220 2.939502 0.000000 0.000000 0.000000 
-50.291275 78.882996 48.484440 -179.942358 42.256615 -179.895626 -3.219692 -6.677368 14.454907 -10.841951 2.779701 -23.314639 7.322240 2.288368 36.743607 -0.994290 -7.730392 -17.634102 0.000000 0.000000 0.000000 0.157378 -6.774518 14.959301 0.896100 -24.375297 -50.136823 -0.667595 0.349998 35.287052 11.676800 15.820330 15.476819 0.000000 0.000000 0.000000 3.662177 -2.827634 1.814679 -2.853493 4.317105 -7.700611 -0.468614 -2.613368 5.767200 0.028108 -0.049142 0.039483 -0.416666 -1.556424 4.757596 -2.616305 0.366534 0.820870 0.000000 0.000000 0.000000 1.273046 -0.749824 1.303503 -3.112162 6.332205 -2.352034 -20.697693 0.072734 -58.530445 4.706032 -25.616235 1.901111 0.000000 0.000000 0.000000 -3.165380 0.309712 0.639674 22.094443 -0.190955 1.396018 4.137306 13.931443 -65.555876 -3.223446 26.520872 3.154682 0.000000 0.000000 0.000000 
-50.379261 78.855179 48.311024 -179.859986 41.090114 -179.652977 -3.203121 -7.109727 14.269740 -10.772682 2.670962 -23.272203 7.158916 2.257402 36.902884 -1.148783 -7.849618 -17.606102 0.000000 0.000000 0.000000 0.116029 -6.720840 14.928615 1.236794 -25.523631 -50.198284 -0.551635 0.730432 35.332207 11.620726 16.097562 15.150326 0.000000 0.000000 0.000000 3.738714 -3.069968 1.424469 -3.100744 4.326943 -7.825973 -0.406084 -2.585226 5.736758 0.030746 -0.066613 0.057644 -0.348460 -1.545592 4.739480 -2.429393 0.529664 1.100070 0.000000 0.000000 0.000000 1.389635 -0.711724 1.272801 -3.000462 7.049265 -2.633048 -20.748757 -0.120442 -61.622486 4.771761 -24.999797 1.173196 0.000000 0.000000 0.000000 -3.093382 0.472147 0.558411 22.105019 -0.662977 1.138766 3.996095 14.178625 -67.850211 -3.517405 25.676459 3.511406 0.000000 0.000000 0.000000 
-50.463039 78.813278 48.152988 -179.842678 40.200533 -179.514583 -3.189506 -7.256901 14.040399 -10.700400 2.592729 -23.192204 7.005263 2.217659 37.149727 -1.298368 -7.970435 -17.604915 0.000000 0.000000 0.000000 0.040601 -6.734773 14.850599 1.182377 -26.106820 -49.951731 -0.436838 0.801168 35.324239 11.578930 16.300965 14.936416 0.000000 0.000000 0.000000 3.815025 -3.216868 1.040760 -3.328908 4.348312 -7.915058 -0.356055 -2.503343 5.726780 -0.004108 -0.036124 0.074927 -0.232875 -1.311608 4.794510 -2.232437 0.579581 1.398386 0.000000 0.000000 0.000000 1.552546 -0.672250 1.282848 -3.119440 7.576148 -3.008065 -20.999116 0.072480 -62.845288 4.549251 -24.483255 0.785732 0.000000 0.000000 0.000000 -2.953835 0.525489 0.563962 22.158809 -0.998696 0.932987 4.067175 14.365013 -68.957645 -3.904782 25.245424 3.935471 0.000000 0.000000 0.000000 
-50.574150 78.768669 48.002079 -179.782573 39.358405 -179.345905 -3.135364 -7.403426 13.718657 -10.650236 2.603736 -23.016155 6.849711 2.147575 37.295312 -1.439871 -8.102600 -17.653387 0.000000 0.000000 0.000000 -0.014494 -7.014911 14.655936 1.073426 -26.396487 -49.621857 -0.516922 0.724422 35.247468 11.530269 16.405112 14.755391 0.000000 0.000000 0.000000 3.899373 -3.320911 0.589133 -3.520391 4.352229 -8.013838 -0.292479 -2.441777 5.815105 -0.005299 -0.006529 0.107836 -0.166855 -1.305987 4.832384 -2.118784 0.641867 1.608239 0.000000 0.000000 0.000000 1.526744 -0.615988 1.343995 -3.190489 7.931172 -3.423922 -21.562822 0.265003 -62.927236 4.305666 -23.951597 0.531219 0.000000 0.000000 0.000000 -2.933049 0.547933 0.443591 22.252283 -1.342072 0.915575 4.361305 14.359199 -69.131883 -4.302947 25.084937 4.129493 0.000000 0.000000 0.000000 
